<svg width="30" height="30" viewBox="0 0 30 30" fill="none" xmlns="http://www.w3.org/2000/svg">
<path fill-rule="evenodd" clip-rule="evenodd" d="M25.3661 16.0286C25.8652 15.9598 26.25 15.5256 26.25 15.0001C26.25 14.4269 25.7921 13.9622 25.2273 13.9622L7.25008 13.9622L13.7441 7.39832L13.8434 7.28212C14.1413 6.87643 14.1095 6.29975 13.7471 5.93051C13.3486 5.52435 12.701 5.52299 12.3008 5.92748L4.06533 14.2506C4.0163 14.2982 3.97195 14.3508 3.93302 14.4075C3.65421 14.8128 3.69348 15.3751 4.05084 15.7362L12.3008 24.0726L12.4158 24.1728C12.8168 24.4734 13.3849 24.4387 13.7472 24.0694C14.1457 23.6632 14.1443 23.0061 13.7441 22.6016L7.24847 16.038L25.2273 16.038L25.3661 16.0286Z" fill="#200E32"/>
</svg>
