<svg width="21" height="20" viewBox="0 0 21 20" fill="none" xmlns="http://www.w3.org/2000/svg">
<path d="M19.86 6.36997L12.93 0.829971C11.86 -0.0300287 10.13 -0.0300287 9.07002 0.819971L2.14002 6.36997C1.36002 6.98997 0.860021 8.29997 1.03002 9.27997L2.36002 17.24C2.60002 18.66 3.96002 19.81 5.40002 19.81H16.6C18.03 19.81 19.4 18.65 19.64 17.24L20.97 9.27997C21.13 8.29997 20.63 6.98997 19.86 6.36997ZM11 13.5C9.62002 13.5 8.50002 12.38 8.50002 11C8.50002 9.61997 9.62002 8.49997 11 8.49997C12.38 8.49997 13.5 9.61997 13.5 11C13.5 12.38 12.38 13.5 11 13.5Z" fill="#2DC28D"/>
</svg>
