<svg width="24" height="24" viewBox="0 0 24 24" fill="none" xmlns="http://www.w3.org/2000/svg">
<path d="M14.6797 11.3413C14.6797 12.8212 13.48 14.0209 12.0001 14.0209C10.5202 14.0209 9.32043 12.8212 9.32043 11.3413C9.32043 9.86134 10.5202 8.66162 12.0001 8.66162C13.48 8.66162 14.6797 9.86134 14.6797 11.3413Z" fill="#2DC28D"/>
<path d="M21.7409 2.25908C21.2511 1.76961 20.6001 1.50012 19.908 1.50012H4.09218C3.40003 1.50012 2.74906 1.76961 2.25896 2.2594C1.76949 2.74935 1.5 3.40015 1.5 4.0923V6.72837C1.5 7.42052 1.76949 8.07132 2.25928 8.56159C2.74922 9.05106 3.40003 9.32039 4.09218 9.32039H4.22355V4.79502C4.22355 4.45535 4.49897 4.17978 4.83879 4.17978H19.1615C19.5012 4.17978 19.7768 4.45535 19.7768 4.79502V9.32039H19.908C20.6001 9.32039 21.2509 9.0509 21.7412 8.56111C22.2307 8.07132 22.5002 7.42036 22.5002 6.72837V4.0923C22.5002 3.40015 22.2307 2.74935 21.7409 2.25908Z" fill="#2DC28D"/>
<path d="M5.45386 20.567C5.45386 21.0837 5.65509 21.5692 6.01991 21.9335C6.38489 22.299 6.87035 22.5002 7.38705 22.5002H16.6131C17.1298 22.5002 17.6152 22.299 17.9796 21.9341C18.3449 21.5692 18.5461 21.0837 18.5461 20.567V5.41016H5.45386V20.567ZM12.0001 7.43099C14.1561 7.43099 15.9102 9.18506 15.9102 11.3411C15.9102 13.4972 14.1561 15.2513 12.0001 15.2513C9.844 15.2513 8.08993 13.4972 8.08993 11.3411C8.08993 9.18506 9.844 7.43099 12.0001 7.43099ZM8.70517 17.9748H15.295C15.6348 17.9748 15.9102 18.2502 15.9102 18.5901C15.9102 18.9297 15.6348 19.2053 15.295 19.2053H8.70517C8.36535 19.2053 8.08993 18.9297 8.08993 18.5901C8.08993 18.2502 8.36535 17.9748 8.70517 17.9748Z" fill="#2DC28D"/>
</svg>
