<svg width="28" height="28" viewBox="0 0 28 28" fill="none" xmlns="http://www.w3.org/2000/svg">
<path d="M27.5836 5.76C26.6094 6.19167 25.5629 6.48334 24.4628 6.61517C25.5979 5.93593 26.4472 4.86688 26.8521 3.6075C25.7856 4.24099 24.6183 4.6869 23.4011 4.92584C22.5825 4.05185 21.4983 3.47255 20.3168 3.27789C19.1353 3.08323 17.9225 3.28409 16.8669 3.8493C15.8112 4.4145 14.9717 5.31243 14.4786 6.40366C13.9855 7.49489 13.8666 8.71838 14.1401 9.88417C11.9791 9.77567 9.865 9.21398 7.93509 8.23556C6.00519 7.25714 4.30258 5.88386 2.93776 4.20484C2.47109 5.00984 2.20276 5.94317 2.20276 6.93717C2.20224 7.832 2.4226 8.71312 2.84429 9.50236C3.26597 10.2916 3.87595 10.9645 4.6201 11.4615C3.75708 11.434 2.91311 11.2009 2.15843 10.7813V10.8513C2.15834 12.1064 2.59247 13.3228 3.38714 14.2942C4.18182 15.2656 5.2881 15.9321 6.51826 16.1807C5.71768 16.3973 4.87832 16.4293 4.0636 16.274C4.41068 17.3539 5.08676 18.2982 5.99719 18.9748C6.90762 19.6513 8.00683 20.0262 9.14093 20.047C7.21573 21.5583 4.83813 22.3781 2.3906 22.3745C1.95704 22.3746 1.52385 22.3493 1.09326 22.2987C3.57765 23.896 6.46966 24.7438 9.42326 24.7405C19.4216 24.7405 24.8874 16.4595 24.8874 9.2775C24.8874 9.04417 24.8816 8.8085 24.8711 8.57517C25.9343 7.80631 26.852 6.85422 27.5813 5.7635L27.5836 5.76Z" fill="#57CEA4"/>
</svg>
